<svg xmlns="http://www.w3.org/2000/svg" xmlns:xlink="http://www.w3.org/1999/xlink" version="1.1" width="1080" height="1080" viewBox="0 0 1080 1080" xml:space="preserve">
<desc>Created with Fabric.js 3.5.0</desc>
<defs>
</defs>
<rect x="0" y="0" width="100%" height="100%" fill="#4aabed"/>
<g transform="matrix(14.0688 0 0 14.0688 540.0005 540.0006)" id="76262">
<path style="stroke: none; stroke-width: 1; stroke-dasharray: none; stroke-linecap: butt; stroke-dashoffset: 0; stroke-linejoin: miter; stroke-miterlimit: 4; is-custom-font: none; font-file-url: none; fill: rgb(185,244,25); fill-rule: nonzero; opacity: 1;" vector-effect="non-scaling-stroke" transform=" translate(-34.893, -34.8935)" d="M 32.986 66.143 c -2.564 -1.354 -3.708 -1.365 -5.809 0.236 c -0.314 -0.076 -0.628 -0.156 -0.94 -0.242 c -0.243 -1.074 0.145 -2.158 1.104 -2.986 c 1.323 -1.139 3.595 -1.334 4.877 -0.416 C 33.326 63.525 33.588 64.693 32.986 66.143 z M 42.394 61.532 c -1.236 -0.669 -3.148 -0.296 -4.465 0.872 c -1.281 1.136 -1.678 2.558 -1.056 4.244 c 1.755 -2.24 3.776 -3.26 6.423 -1.86 C 43.736 63.075 43.448 62.1 42.394 61.532 z M 21.65 63.173 c -0.968 -0.758 -2.434 -0.956 -3.66 -0.589 c 1.521 0.923 3.124 1.725 4.794 2.391 C 22.669 64.295 22.289 63.674 21.65 63.173 z M 51.105 59.695 c -1.574 -0.174 -2.713 0.727 -3.629 1.883 c -0.824 1.038 -1.289 2.173 -0.886 3.559 c 0.294 -0.113 0.584 -0.229 0.873 -0.349 c 1.086 -1.274 2.261 -2.259 3.995 -2.004 c 0.359 -0.212 0.717 -0.429 1.064 -0.651 C 52.816 60.814 52.304 59.829 51.105 59.695 z M 49.109 53.766 c 0.078 -1.519 -0.451 -2.552 -1.764 -2.959 c -1.596 -0.496 -2.898 0.195 -3.933 1.377 c -1.037 1.188 -1.531 2.541 -1.069 3.938 c 0.947 -0.923 1.784 -1.976 2.844 -2.708 C 46.424 52.555 47.795 52.956 49.109 53.766 z M 54.058 42.518 c -0.109 -1.395 -0.439 -2.562 -1.728 -3.174 c -1.146 -0.547 -2.185 -0.217 -3.101 0.579 c -1.268 1.101 -1.693 2.697 -1.203 4.449 C 49.851 41.109 51.595 40.54 54.058 42.518 z M 52.365 54.766 c 1.521 -3.313 2.863 -4.137 5.316 -3.187 c 0.016 -2.021 -1.021 -3.097 -2.488 -2.713 C 53.021 49.432 51.478 52.65 52.365 54.766 z M 61.28 40.441 c -0.13 -0.555 -0.112 -1.066 -0.354 -1.379 c -0.514 -0.664 -1.129 -1.664 -1.764 -1.711 c -0.734 -0.057 -1.744 0.596 -2.264 1.238 c -0.916 1.139 -0.946 2.584 -0.647 4.156 C 57.754 39.331 58.892 38.797 61.28 40.441 z M 59.677 25.923 c -1.252 0.188 -1.845 1.824 -1.465 4.051 c 1.432 -2.374 2.239 -2.471 4.329 -0.411 C 62.22 27.204 61.009 25.727 59.677 25.923 z M 33.424 52.578 c -1.645 1.044 -2.306 2.982 -1.613 4.738 c 1.418 -3.987 2.864 -4.939 6.436 -4.076 C 36.902 51.742 35.068 51.537 33.424 52.578 z M 22.131 53.236 c -1.522 1.074 -2.005 3 -1.127 4.488 c 0.309 -3.498 2.507 -4.851 6.248 -3.845 C 25.918 52.33 23.793 52.062 22.131 53.236 z M 43.769 41.934 c -1.094 -1.315 -2.795 -1.623 -4.287 -0.818 c -1.731 0.934 -2.707 3.49 -1.77 5.179 C 38.273 42.473 40.207 41.117 43.769 41.934 z M 55.353 28.83 c -0.91 -0.967 -1.871 -1.36 -3.022 -0.685 c -1.345 0.787 -1.841 2.768 -1.194 4.535 C 51.745 29.366 52.595 28.566 55.353 28.83 z M 60.599 16.398 c 0.026 -0.109 0.055 -0.218 0.082 -0.328 c -0.66 -0.13 -1.572 -0.598 -1.937 -0.327 c -1.088 0.81 -0.685 2.01 -0.321 3.491 C 58.54 16.76 58.937 16.308 60.599 16.398 z M 69.754 34.926 c 0 19.225 -15.639 34.861 -34.861 34.861 c -19.224 0 -34.861 -15.639 -34.861 -34.861 c 0 -11.481 5.582 -21.685 14.172 -28.039 C 19.978 2.564 27.143 0 34.894 0 c 7.514 0 14.477 2.411 20.155 6.496 C 63.943 12.82 69.754 23.207 69.754 34.926 z M 64.245 48.729 c -0.011 -0.561 -0.327 -1.188 -0.468 -1.775 c -0.953 2.32 -1.129 4.967 -4.818 5.384 c 0.684 0.871 1.122 1.942 1.669 2.001 c 0.075 0.008 0.157 0.006 0.24 0.001 C 62.172 52.596 63.306 50.717 64.245 48.729 z M 66.631 41.637 c 0.271 -1.285 0.466 -2.597 0.58 -3.932 c -0.11 -0.85 -0.366 -1.637 -0.786 -2.205 c -0.389 2.047 0.104 4.602 -3.139 5.205 c 0.186 0.43 0.337 0.995 0.646 1.458 c 0.623 0.937 1.477 0.963 2.231 0.149 C 66.341 42.124 66.498 41.893 66.631 41.637 z M 34.894 67.365 c 7.364 0 14.161 -2.469 19.612 -6.618 c -0.248 0.187 -0.496 0.373 -0.751 0.554 c 0.068 -0.119 0.136 -0.24 0.207 -0.354 c 0.622 -0.989 1.28 -2.237 2.24 -2.678 c 2.543 -1.16 2.967 -2.928 2.537 -5.276 c -0.433 -2.367 -0.089 -4.454 1.672 -6.197 c 1.933 -1.915 2.368 -4.217 1.823 -6.813 c -0.407 -1.938 0.156 -3.672 1.484 -5.09 c 0.756 -0.81 1.643 -1.539 2.584 -2.125 c 0.344 -0.216 0.643 -0.449 0.9 -0.697 c -0.188 -2.132 -0.58 -4.205 -1.161 -6.199 c -0.69 -0.412 -1.181 -0.053 -1.795 0.993 c -0.067 -0.033 -0.192 -0.068 -0.192 -0.1 c 0.014 -1.156 -0.498 -2.819 0.905 -3.142 c 0.115 -0.026 0.22 -0.036 0.32 -0.041 C 60.671 11.274 48.79 2.489 34.894 2.489 c -17.888 0 -32.438 14.552 -32.438 32.439 c 0 7.848 2.802 15.053 7.456 20.668 c 0.025 -1.133 0.532 -2.018 1.465 -2.617 c 1.578 -1.014 3.288 -0.744 5.161 1.07 c -1.653 -0.725 -2.979 -0.99 -4.302 -0.254 c -0.985 0.549 -1.539 1.344 -1.801 2.415 c 1.443 1.657 3.053 3.166 4.8 4.5 c 0.886 0.669 1.804 1.3 2.756 1.875 c -0.007 0.003 -0.011 0.005 -0.019 0.007 C 22.902 65.618 28.698 67.365 34.894 67.365 z" stroke-linecap="round"/>
</g>
</svg>