<?xml version="1.0" encoding="UTF-8" standalone="no" ?>
<!DOCTYPE svg PUBLIC "-//W3C//DTD SVG 1.1//EN" "http://www.w3.org/Graphics/SVG/1.1/DTD/svg11.dtd">
<svg xmlns="http://www.w3.org/2000/svg" xmlns:xlink="http://www.w3.org/1999/xlink" version="1.1" width="2000" height="2000" viewBox="1009.16 1292.45 2000 2000" xml:space="preserve">
<desc>Created with Fabric.js 5.2.4</desc>
<defs>
</defs>
<rect x="0" y="0" width="100%" height="100%" fill="transparent"></rect>
<g transform="matrix(1 0 0 1 1000 1000)" id="4d1f2cb1-1295-4bfa-ac09-021d2537ca3c"  >
<rect style="stroke: none; stroke-width: 1; stroke-dasharray: none; stroke-linecap: butt; stroke-dashoffset: 0; stroke-linejoin: miter; stroke-miterlimit: 4; fill: rgb(38,84,124); fill-rule: nonzero; opacity: 1; visibility: hidden;" vector-effect="non-scaling-stroke"  x="-1000" y="-1000" rx="0" ry="0" width="2000" height="2000" />
</g>
<g transform="matrix(Infinity NaN NaN Infinity 0 0)" id="cdd5d1c6-dcf2-4e1d-acec-4f90f9cc115c"  >
</g>
<g transform="matrix(7.28 0 0 7.28 1927.52 1840.89)"  >
<path style="stroke: none; stroke-width: 1; stroke-dasharray: none; stroke-linecap: butt; stroke-dashoffset: 0; stroke-linejoin: miter; stroke-miterlimit: 4; fill: rgb(246,251,250); fill-rule: nonzero; opacity: 1;" vector-effect="non-scaling-stroke"  transform=" translate(-310.07, -150.6)" d="M 301.854523 122.437637 C 305.398499 121.236267 308.612366 119.755959 312.202667 119.916016 C 313.840363 119.989029 315.740356 119.570198 316.667816 121.345207 C 317.691223 123.303825 316.413452 124.810249 315.149414 126.187141 C 314.175751 127.247795 313.1763 128.284775 311.452606 130.112366 C 316.345245 130.472778 320.270691 130.52626 324.120483 131.093384 C 332.81723 132.374481 340.844116 135.118561 344.145355 144.349396 C 347.345825 153.298386 344.095001 160.910812 338.213593 167.707458 C 337.455353 168.583679 336.673157 169.439209 335.838165 170.998489 C 332.997345 173.995529 331.131409 177.993484 326.103271 176.577087 C 321.624054 177.597458 317.471161 178.755356 313.400757 180.420227 C 313.32785 181.04567 313.172424 181.164139 312.72406 181.295044 C 311.856506 181.162201 311.371429 180.827362 310.595123 180.430023 C 310.026672 180.066971 309.72644 179.823868 309.211304 179.386108 C 305.520966 178.704819 302.073425 178.058716 298.850952 176.66333 C 291.25882 173.375824 287.133392 167.618164 286.852112 159.267761 C 286.779633 157.11644 286.841187 154.960602 286.841187 152.767227 C 284.177429 152.210403 283.231354 154.557083 281.464294 155.255081 C 277.10379 156.977371 274.453156 155.36998 274.757385 150.676117 C 275.156647 144.516235 278.617584 140.140884 283.721863 137.074936 C 286.729095 135.268631 288.829742 136.644608 289.832428 139.747055 C 290.214813 140.930313 290.196716 142.242996 290.464691 144.28627 C 294.606354 140.917908 298.246796 137.957199 302.207397 134.736084 C 299.089508 133.13205 294.723267 134.419403 294.27359 130.744217 C 293.846863 127.25679 297.490692 125.660507 299.954193 123.750114 C 300.476837 123.344841 301.082001 123.045967 301.854523 122.437637 z" stroke-linecap="round" />
</g>
<g transform="matrix(7.28 0 0 7.28 2205.48 2051.72)"  >
<path style="stroke: none; stroke-width: 1; stroke-dasharray: none; stroke-linecap: butt; stroke-dashoffset: 0; stroke-linejoin: miter; stroke-miterlimit: 4; fill: rgb(255,209,102); fill-rule: nonzero; opacity: 1;" vector-effect="non-scaling-stroke"  transform=" translate(-348.23, -179.55)" d="M 335.960693 171.005463 C 337.901215 172.71701 338.734741 170.497681 339.752594 169.727615 C 343.84079 166.634644 348.396423 164.776123 353.447021 164.281479 C 363.129364 163.333206 368.593018 170.848419 364.549225 179.620331 C 359.910583 189.682648 351.760651 194.472885 340.417664 194.90564 C 331.823395 192.208069 330.450928 190.128677 331.513916 181.593689 C 328.462006 176.182968 333.563873 174.500732 335.730652 171.251022 C 336.000275 170.972977 335.979279 171.004318 335.960693 171.005463 z" stroke-linecap="round" />
</g>
<g transform="matrix(7.28 0 0 7.28 1905.57 2135.06)"  >
<path style="stroke: none; stroke-width: 1; stroke-dasharray: none; stroke-linecap: butt; stroke-dashoffset: 0; stroke-linejoin: miter; stroke-miterlimit: 4; fill: rgb(246,251,250); fill-rule: nonzero; opacity: 1;" vector-effect="non-scaling-stroke"  transform=" translate(-307.04, -191.01)" d="M 313.222321 180.863205 C 313.525879 181.044052 313.557861 180.946838 313.520569 180.937012 C 315.752441 182.24617 318.164612 183.371582 320.263306 184.921448 C 325.931213 189.107224 325.430939 195.278549 319.544281 199.090744 C 311.342987 204.401917 299.810028 201.329575 293.637177 197.4702 C 288.111511 194.015427 288.772217 186.279037 294.572906 183.203125 C 298.734985 180.996094 303.306091 180.169891 308.473511 180.609833 C 309.532532 180.248337 310.206421 180.064026 311.278687 180.08902 C 312.085266 180.248489 312.515839 180.433868 313.222321 180.863205 z" stroke-linecap="round" />
</g>
<g transform="matrix(7.28 0 0 7.28 2024.52 2287.24)"  >
<path style="stroke: none; stroke-width: 1; stroke-dasharray: none; stroke-linecap: butt; stroke-dashoffset: 0; stroke-linejoin: miter; stroke-miterlimit: 4; fill: rgb(246,251,250); fill-rule: nonzero; opacity: 1;" vector-effect="non-scaling-stroke"  transform=" translate(-323.38, -211.91)" d="M 314.847656 206.625107 C 320.718536 202.970337 326.505188 203.47641 332.158325 205.887268 C 336.049774 207.546829 337.006165 211.272263 334.860229 214.47406 C 330.914612 220.361023 317.550934 221.772064 312.530365 216.831818 C 309.614288 213.962402 310.296844 210.585205 314.847656 206.625107 z" stroke-linecap="round" />
</g>
<g transform="matrix(7.28 0 0 7.28 1707.73 2005.45)"  >
<path style="stroke: none; stroke-width: 1; stroke-dasharray: none; stroke-linecap: butt; stroke-dashoffset: 0; stroke-linejoin: miter; stroke-miterlimit: 4; fill: rgb(246,251,250); fill-rule: nonzero; opacity: 1;" vector-effect="non-scaling-stroke"  transform=" translate(-279.87, -173.2)" d="M 286.96521 181.834229 C 281.785889 185.820526 278.225006 185.466919 274.473694 180.788162 C 272.378784 178.175369 270.795715 175.311707 270.727814 171.805725 C 270.644196 167.488739 271.822754 163.687256 276.198669 162.215576 C 280.591919 160.738068 283.377472 163.593216 285.541046 166.977325 C 288.453491 171.532776 290.929047 176.194443 286.96521 181.834229 z" stroke-linecap="round" />
</g>
<g transform="matrix(7.28 0 0 7.28 1657.57 2147.61)"  >
<path style="stroke: none; stroke-width: 1; stroke-dasharray: none; stroke-linecap: butt; stroke-dashoffset: 0; stroke-linejoin: miter; stroke-miterlimit: 4; fill: rgb(246,251,250); fill-rule: nonzero; opacity: 1;" vector-effect="non-scaling-stroke"  transform=" translate(-273, -192.72)" d="M 268.213715 187.442093 C 269.963501 184.745178 272.044098 185.079239 274.046417 186.25589 C 277.345978 188.19487 278.512695 191.618774 278.837799 195.051865 C 279.009247 196.862762 277.600128 199.0625 275.668274 199.755142 C 272.69635 200.820724 270.556946 198.972214 269.034424 196.647781 C 267.245819 193.917099 266.250336 190.964447 268.213715 187.442093 z" stroke-linecap="round" />
</g>
<g transform="matrix(7.28 0 0 7.28 1611.3 1884.34)"  >
<path style="stroke: none; stroke-width: 1; stroke-dasharray: none; stroke-linecap: butt; stroke-dashoffset: 0; stroke-linejoin: miter; stroke-miterlimit: 4; fill: rgb(246,251,250); fill-rule: nonzero; opacity: 1;" vector-effect="non-scaling-stroke"  transform=" translate(-266.63, -156.57)" d="M 264.375519 161.979919 C 261.774719 158.319778 263.034607 153.270111 266.652344 151.557526 C 269.115112 150.391693 270.419739 151.930801 270.247467 153.902145 C 269.934662 157.481949 269.276825 161.229828 264.375519 161.979919 z" stroke-linecap="round" />
</g>
<g transform="matrix(7.28 0 0 7.28 1759.29 1685.75)"  >
<path style="stroke: none; stroke-width: 1; stroke-dasharray: none; stroke-linecap: butt; stroke-dashoffset: 0; stroke-linejoin: miter; stroke-miterlimit: 4; fill: rgb(246,251,250); fill-rule: nonzero; opacity: 1;" vector-effect="non-scaling-stroke"  transform=" translate(-286.94, -129.29)" d="M 291.953979 125.979202 C 290.287384 128.706146 287.8302 130.158875 285.61911 131.874863 C 284.827362 132.489349 283.948853 133.872925 282.763031 132.34082 C 282.016968 131.376907 281.705597 130.24823 282.119415 129.065979 C 282.905884 126.81916 289.350677 124.595795 291.953979 125.979202 z" stroke-linecap="round" />
</g>
<g transform="matrix(7.28 0 0 7.28 2304.03 1800.81)"  >
<path style="stroke: none; stroke-width: 1; stroke-dasharray: none; stroke-linecap: butt; stroke-dashoffset: 0; stroke-linejoin: miter; stroke-miterlimit: 4; fill: rgb(246,251,250); fill-rule: nonzero; opacity: 1;" vector-effect="non-scaling-stroke"  transform=" translate(-361.76, -145.11)" d="M 366.51123 158.799683 C 355.548828 158.932343 347.749084 151.657181 348.01532 141.993607 C 348.217804 134.646255 353.959351 130.142609 361.1474 131.725327 C 367.890442 133.210037 372.305725 137.495529 374.572021 143.791672 C 377.174835 151.022705 374.378143 156.141922 366.51123 158.799683 z" stroke-linecap="round" />
</g>
<g transform="matrix(7.28 0 0 7.28 2452.92 2051.82)"  >
<path style="stroke: none; stroke-width: 1; stroke-dasharray: none; stroke-linecap: butt; stroke-dashoffset: 0; stroke-linejoin: miter; stroke-miterlimit: 4; fill: rgb(246,251,250); fill-rule: nonzero; opacity: 1;" vector-effect="non-scaling-stroke"  transform=" translate(-382.21, -179.57)" d="M 380.830505 169.50853 C 383.684845 168.977966 386.038086 168.837433 388.517822 169.816025 C 392.798981 171.505539 394.856598 174.714935 393.89505 178.97139 C 392.432281 185.44635 384.730621 190.791977 378.073273 189.953049 C 371.67511 189.146774 368.636627 183.933533 371.207062 178.012177 C 373.010101 173.858551 376.158752 171.083878 380.830505 169.50853 z" stroke-linecap="round" />
</g>
<g transform="matrix(7.28 0 0 7.28 2135.44 1648.92)"  >
<path style="stroke: none; stroke-width: 1; stroke-dasharray: none; stroke-linecap: butt; stroke-dashoffset: 0; stroke-linejoin: miter; stroke-miterlimit: 4; fill: rgb(246,251,250); fill-rule: nonzero; opacity: 1;" vector-effect="non-scaling-stroke"  transform=" translate(-338.61, -124.25)" d="M 331.510864 129.488159 C 328.199646 128.067123 323.913513 127.695381 324.159668 123.465836 C 324.408112 119.196693 328.56897 118.531082 331.943695 117.767693 C 337.958038 116.407196 343.817902 117.17749 349.393097 119.768509 C 351.410522 120.706093 353.107208 122.170982 353.071594 124.652901 C 353.031708 127.431488 350.944 128.700516 348.72641 129.520584 C 343.150177 131.582703 337.507233 132.411133 331.510864 129.488159 z" stroke-linecap="round" />
</g>
<g transform="matrix(7.28 0 0 7.28 2349.69 1629.84)"  >
<path style="stroke: none; stroke-width: 1; stroke-dasharray: none; stroke-linecap: butt; stroke-dashoffset: 0; stroke-linejoin: miter; stroke-miterlimit: 4; fill: rgb(246,251,250); fill-rule: nonzero; opacity: 1;" vector-effect="non-scaling-stroke"  transform=" translate(-368.03, -121.63)" d="M 360.68219 123.041092 C 359.243927 120.211792 360.072479 118.134888 362.084625 116.593903 C 364.002502 115.125145 366.112488 114.760101 368.367188 116.274605 C 369.859558 117.277039 371.601898 117.899361 373.190887 118.767662 C 375.727112 120.153542 376.717957 122.512886 375.735596 125.03672 C 374.830139 127.363022 372.43103 128.241455 369.967316 127.866966 C 366.502319 127.340302 363.206116 126.285095 360.68219 123.041092 z" stroke-linecap="round" />
</g>
<g transform="matrix(7.28 0 0 7.28 2030.29 1568.05)"  >
<path style="stroke: none; stroke-width: 1; stroke-dasharray: none; stroke-linecap: butt; stroke-dashoffset: 0; stroke-linejoin: miter; stroke-miterlimit: 4; fill: rgb(246,251,250); fill-rule: nonzero; opacity: 1;" vector-effect="non-scaling-stroke"  transform=" translate(-324.17, -113.13)" d="M 329.96228 110.645798 C 330.508057 111.276718 330.998505 111.823967 330.876373 112.103523 C 329.455048 115.35601 321.862152 117.462265 318.950317 115.616302 C 316.955841 114.351883 316.986206 113.371536 318.79068 111.989914 C 322.138916 109.426254 325.82843 109.666313 329.96228 110.645798 z" stroke-linecap="round" />
</g>
<g transform="matrix(7.28 0 0 7.28 2077.57 2785.02)" style=""  >
		<text xml:space="preserve" font-family="Lato" font-size="16" font-style="normal" font-weight="400" style="stroke: none; stroke-width: 1; stroke-dasharray: none; stroke-linecap: butt; stroke-dashoffset: 0; stroke-linejoin: miter; stroke-miterlimit: 4; fill: rgb(246,251,250); fill-rule: nonzero; opacity: 1; white-space: pre;" ><tspan x="-44.61" y="5.03" >Golf Trip Fun</tspan></text>
</g>
<g transform="matrix(NaN NaN NaN NaN 0 0)"  >
<g style=""   >
</g>
</g>
<g transform="matrix(NaN NaN NaN NaN 0 0)"  >
<g style=""   >
</g>
</g>
<g transform="matrix(1 0 0 1 2037.49 2537.37)" style="" id="8c40b5d4-7ec2-4e82-8fbb-6771dcca0e77"  >
		<text xml:space="preserve" font-family="Alegreya" font-size="188" font-style="normal" font-weight="700" style="stroke: none; stroke-width: 1; stroke-dasharray: none; stroke-linecap: butt; stroke-dashoffset: 0; stroke-linejoin: miter; stroke-miterlimit: 4; fill: rgb(6,214,160); fill-rule: nonzero; opacity: 1; white-space: pre;" ><tspan x="-595.3" y="59.06" >my</tspan><tspan x="-356.17" y="59.06" style="fill: rgb(255,209,102); ">golftrip</tspan><tspan x="238.1" y="59.06" >.golf</tspan></text>
</g>
</svg>